<svg viewBox="0 0 1444 635" version="1.1" xmlns="http://www.w3.org/2000/svg"><path fill="#FFFFFF" d="M872.3,624.6 C842.2,600.6 718.3,525.2 691.6,509 C610.4,459.8 504.5,397.7 473.6,384.9 C472.8,384.6 472,384.4 471.1,384.4 C470.8,384.4 470.4,384.4 470.1,384.5 C354.2,402.6 257.7,411.7 183.1,411.7 C127.4,411.7 83.8,406.6 53.5,396.6 C31.7,389.4 16.9,379.5 10.6,367.9 C4.6,356.8 8,347 9.2,345.1 C9.6,344.6 9.9,344.1 10.3,343.5 C12.9,339.6 19.7,329.2 38.5,319.6 C63.1,307 98.2,300.6 142.9,300.6 C223.4,300.6 331.9,321.5 465.4,362.6 C466,362.8 466.7,362.9 467.3,362.9 C468.3,362.9 469.2,362.7 470.1,362.3 C526.5,335.1 552.1,311.4 548.4,289.8 C545.9,275 529.8,263.1 500.5,254.6 C481.4,249.1 463.2,246.8 460.3,246.4 C456.8,245.6 431.6,240.5 381.1,240.5 C375.6,240.5 369.9,240.6 364.2,240.7 C364.1,240.7 364,240.7 364,240.7 C363.8,240.7 338.8,242.2 304.3,242.2 C174.6,242.2 95.6,223.2 87.5,190 C86.9,178.1 91.2,167.3 100.6,157 C161.5,90.1 403.3,78.7 431.2,77.6 L527.6,165.4 C517.8,165.3 504.2,165.2 488.5,165.2 C258.5,165.2 244.5,183 239.8,188.8 C237.5,191.7 236.7,195.1 237.5,198.5 C240.3,210.5 258.1,224.4 371,224.4 C377.8,224.4 384.9,224.3 392.1,224.2 C395.7,224.2 568.1,225.2 652.3,260.5 C653.1,260.8 654,261 654.8,261 C656.2,261 657.5,260.6 658.7,259.7 C660.5,258.3 661.5,256.1 661.3,253.8 L661,250.4 C660.8,248.3 660.6,246.3 660.4,244.3 C657.1,209.2 641.2,73.3 641,71.9 C640.6,68.6 637.8,66.2 634.5,66.2 C634.4,66.2 583.5,67.4 583.5,67.4 L583.3,67 C642.4,46.7 741.5,33.2 833.7,33.2 C883.3,33.2 950.7,37.1 1007.4,54 C982.3,57.6 958.9,61.8 937.7,66.5 C929.1,68.4 920.7,70.4 912.7,72.5 C858.9,65 806.2,63.4 771.3,63.4 C745.3,63.4 728.5,64.3 728.3,64.3 C726.5,64.4 724.8,65.2 723.7,66.6 C722.5,68 722,69.8 722.2,71.6 L745.1,258.9 C745.3,260.6 746.2,262.2 747.6,263.2 C748.7,264.1 750.2,264.6 751.6,264.6 C751.9,264.6 752.1,264.6 752.4,264.5 C759.1,263.6 773.3,262.8 791.2,261.7 C829.8,259.4 888.2,255.8 932.1,248.5 C944.1,246.5 954.5,244.3 963.1,241.9 C968.2,240.5 972.8,239 976.7,237.5 C979.8,236.3 982.9,234.9 986,233.5 C996.3,228.7 1006,222.7 1014.9,215.9 C1018.4,213.2 1021.7,210.4 1024.8,207.5 C1027.9,204.6 1030.9,201.6 1033.6,198.5 C1034.8,197.2 1035.9,195.8 1037.1,194.4 L1094.9,190.6 C1093.9,191.5 1092.9,192.3 1091.8,193.2 C1088,196.3 1083.8,199.3 1079.4,202.2 C1074.8,205.2 1069.8,208.2 1064.5,211 C1056.6,215.3 1047.8,219.4 1038.3,223.2 C1030.6,226.3 1022.3,229.4 1013.6,232.3 C1004.8,235.2 995.4,238 985.5,240.7 C880.8,269 754.4,271.7 753.1,271.7 C751.3,271.7 749.6,272.5 748.4,273.9 C747.2,275.3 746.6,277.1 746.8,278.9 C768.2,486.4 792.3,552 793.4,554.7 C793.9,556 794.8,557.1 796,557.9 L881.7,612.5 L872.3,624.6 Z M663.8,334.5 C662.8,334.5 661.8,334.7 660.9,335.2 C605.6,363.1 506.9,378 505.9,378.2 C503.2,378.6 501,380.7 500.5,383.4 C500,386.1 501.3,388.9 503.7,390.2 L682.6,492.4 C683.6,493 684.7,493.3 685.8,493.3 C687.2,493.3 688.5,492.9 689.7,492 C691.8,490.4 692.7,487.8 692.1,485.3 C686,459.8 679.4,417 672.4,358.1 C671.7,352.2 671,346.2 670.3,340.2 C670.1,338.1 668.8,336.2 666.9,335.2 C665.9,334.8 664.9,334.5 663.8,334.5 Z M185.7,329.6 C134.1,329.6 105.4,338.3 97.7,356.2 C97.6,356.5 97.4,356.9 97.4,357.2 C95.1,367 96.8,375.5 102.5,382.7 C114.9,398.4 146.2,406.1 198.2,406.1 C198.2,406.1 198.2,406.1 198.2,406.1 C298.8,406.1 444.5,376.6 446,376.3 C449,375.7 451.2,373 451.2,370 C451.2,366.9 449.1,364.3 446.1,363.6 C444.5,363.3 286.6,329.6 185.7,329.6 Z M683.3,538.2 C582.9,536.5 487,526.4 397.9,508.1 C318.4,491.7 246.9,469 189.1,441.8 C219.2,441.7 253.1,440.1 289.9,437.2 C382.7,481.6 509.5,509.8 647.3,516.5 C659.2,523.6 671.3,530.9 683.3,538.2 Z M863.3,511.7 L865.9,531.7 C857.1,532.5 848.3,533.2 839.5,533.9 L863.3,511.7 Z M963.9,493.1 C999.9,485.5 1034.1,476.2 1065.6,465.5 C1112.7,459.9 1164.9,451.7 1220.9,441.2 L1221.1,441.2 C1223.3,440.8 1235.1,438.4 1252.6,434.1 C1170.2,476.1 1058.3,507.6 930.2,524.6 L963.9,493.1 Z M795.7,415.7 L845.8,383.4 L852.7,476.8 L815.8,513.3 L795.7,415.7 Z M880.5,407.4 L931,374.9 L935,424.2 C935.3,427.6 938.1,430.2 941.5,430.2 C942.7,430.2 943.9,430.2 945,430.2 C1038.9,430.2 1116.2,416.3 1211.8,382.3 C1212,382.2 1212.1,382.2 1212.2,382.1 C1271.9,355.7 1299.6,330.6 1297.1,305.3 C1295.3,287.6 1278.5,271.9 1247.2,258.6 C1225.9,249.6 1205.3,244.9 1203.1,244.3 C1200.4,243.6 1175.1,237.1 1123.4,237.1 C1117.9,237.1 1112.2,237.2 1106.5,237.3 C1106.4,237.3 1081.1,238.6 1081.1,238.6 C1096.4,229.2 1108.8,218.9 1113.4,214.8 C1114,214.8 1114.7,214.8 1115.3,214.8 C1124.7,214.8 1133.1,214.5 1134.3,214.4 C1140.1,214.4 1310.6,215.8 1394,258.3 C1394.2,258.4 1394.4,258.5 1394.6,258.6 C1395,258.8 1437.6,275.8 1437.6,303.2 C1437.6,328 1398.2,355.4 1326.6,380.4 C1270,400.1 1212.7,411.7 1212.1,411.8 C1105.5,431.9 1015,443 943.3,444.5 C941.6,444.5 939.9,445.3 938.7,446.6 C937.5,447.9 936.9,449.6 937,451.3 L937.9,472.7 L894.4,513 L880.5,407.4 Z M189.2,368.8 C166,368.2 151.8,365.7 143.2,363.3 C151,361.6 162.9,360.1 180.8,359.7 C183.5,362.8 186.3,365.9 189.2,368.8 Z M32.5,282.8 C32.2,279.3 32,275.9 32,272.5 C32,247.6 41,223.1 58.7,199.3 C67.9,226.7 96.4,245.9 145.4,257.6 C145.1,259.5 144.9,261.4 144.8,263.2 C98.9,263.3 61.2,269.9 32.5,282.8 Z M908,224.3 C864.7,215.2 834.1,198 829.6,180.3 C828.7,162.8 838.4,147.4 859.3,133.2 C878.1,120.4 905.8,109 941.4,99.3 C949.3,97.2 957.9,95 966.9,93 C975,91.2 983.4,89.4 992.1,87.8 C1013.5,83.7 1036.9,80.1 1061.6,77.1 C1068.1,76.3 1074.6,75.5 1081.1,74.8 C1086.6,74.2 1092.4,73.6 1098.7,73 C1135.9,69.5 1164.6,68.2 1173.2,67.8 L1269.6,155.6 C1259.8,155.5 1246.2,155.4 1230.4,155.4 C1196.1,155.4 1164.2,155.8 1135.6,156.7 C1131.8,156.8 1128,156.9 1124.2,157.1 C1120.2,157.2 1116.3,157.4 1112.3,157.6 C1091.6,158.5 1073,159.6 1057.2,161 C1053.1,161.3 1049.2,161.7 1045.4,162.1 C1041,162.6 1036.8,163 1032.9,163.5 C994,168.4 985,174.5 981.3,179.7 C979.4,182.4 978.8,185.6 979.5,188.7 C980,190.7 981.3,193.4 986.2,197.3 C973.7,210.9 945.3,220.8 908,224.3 Z M1374.3,209.4 C1343.6,199.2 1305.9,191.3 1261.6,185.7 C1278.3,185.8 1288.6,186 1288.8,186 C1288.8,186 1343.8,187 1343.8,187 C1346.5,187 1348.9,185.4 1349.8,182.9 C1350.3,181.7 1350.4,180.4 1350.1,179.2 C1359.7,189.1 1367.8,199.2 1374.3,209.4 Z M448.2,41.6 C447,40.5 445.4,39.9 443.8,39.9 C443.7,39.9 435.2,40.2 435.2,40.2 C433.3,40.3 403.5,41.2 361.4,45.1 C398.3,36.3 437.2,29 477.9,23.1 C548.6,12.9 622.8,7.4 698.6,6.7 C645.1,13 598.1,22.7 566.7,34.4 L564.2,35.3 C528.3,39.5 493.2,45.2 459.9,52.3 L448.2,41.6 Z"></path><path fill="#CCFFFF" d="M603.8,16.5 C588.9,20.2 575.7,24.1 564.5,28.4 L562.7,29.1 C528,33.1 494.1,38.6 461.9,45.4 L452.6,36.9 C451.3,35.7 449.9,34.9 448.3,34.3 C458.4,32.6 468.6,31 478.9,29.5 C519.5,23.5 561.2,19.2 603.8,16.5 Z M833.7,39.6 C887.3,39.6 935.1,44 975,52.4 C961.5,54.7 948.5,57.3 936.3,60 C928.1,61.8 920,63.8 912.3,65.8 C858.6,58.4 806.1,56.8 771.3,56.8 C745.1,56.8 728.7,57.7 728,57.7 C724.4,57.9 721.1,59.6 718.7,62.3 C716.4,65.1 715.3,68.7 715.8,72.2 L738.7,259.5 C739.1,262.9 740.9,266.1 743.6,268.2 C743.9,268.4 744.1,268.6 744.4,268.8 C744.1,269.1 743.8,269.4 743.5,269.7 C741.1,272.4 739.9,276 740.3,279.6 C761.8,487.9 786.2,554.3 787.2,557.1 C788.2,559.7 790,562 792.4,563.5 L872,614.2 L871,615.4 C862.3,609 847,598.5 819.4,580.8 C786.2,559.4 741.9,531.9 694.8,503.3 C692.7,502 690.5,500.7 688.4,499.4 C690.2,499 691.9,498.2 693.4,497.1 C697.5,494 699.5,488.7 698.3,483.7 C692.3,458.4 685.7,415.9 678.7,357.3 C678,351.6 677.3,345.6 676.6,339.5 C676.1,335.3 673.6,331.6 669.9,329.5 C668,328.5 665.9,327.9 663.7,327.9 C661.7,327.9 659.7,328.4 657.8,329.3 C603.5,356.7 505.7,371.5 504.8,371.7 C499.3,372.5 495,376.7 493.9,382.2 C493.6,383.9 493.6,385.7 494,387.3 C486.6,383.5 480.5,380.6 476,378.8 C474.4,378.1 472.7,377.8 471,377.8 C470.3,377.8 469.7,377.9 469,378 C463.3,378.9 457.7,379.7 452.2,380.6 C455.5,378.2 457.5,374.4 457.6,370.1 C457.6,369 457.5,367.9 457.2,366.8 C459.3,367.4 461.3,368.1 463.4,368.7 C464.7,369.1 465.9,369.3 467.2,369.3 C469.1,369.3 471.1,368.9 472.8,368 C502.5,353.7 523.4,340.6 536.9,328 C551,314.8 557,301.5 554.8,288.6 C553,278.1 545.9,268.9 533.8,261.4 C525.7,256.4 515.2,252 502.4,248.3 C483.4,242.8 465.3,240.4 461.4,240 C456.5,239 430.7,234 381.1,234 C375.5,234 369.8,234.1 364,234.2 C363.8,234.2 363.7,234.2 363.5,234.2 C363.3,234.2 338.5,235.7 304.2,235.7 C267.1,235.7 213.6,234 169.2,225.8 C124.9,217.7 98.2,204.6 93.8,189 C93.5,179.2 97.2,170.1 105.2,161.3 C118.9,146.2 144.2,132.7 180.5,121.2 C210.6,111.6 247.9,103.5 291.3,97.1 C353.9,87.9 411.4,84.9 428.6,84.2 L510.4,158.8 C503.7,158.8 496.2,158.7 488.2,158.7 C448,158.7 389.7,159.3 340.1,162.4 C313.2,164 291.3,166.2 275.1,168.9 C252.4,172.7 240.2,177.4 234.4,184.7 C230.9,189.2 229.6,194.6 230.9,199.9 C234.3,214.2 250.6,222.2 285.5,226.6 C307,229.3 335.6,230.7 370.7,230.7 C377.5,230.7 384.6,230.6 391.8,230.5 C396.9,230.5 566.8,231.6 649.5,266.3 C651.1,267 652.8,267.3 654.5,267.3 C657.2,267.3 659.9,266.4 662.2,264.8 C665.9,262.1 667.9,257.6 667.4,253.1 L667.1,249.9 C666.9,247.8 666.7,245.7 666.5,243.6 C663.2,208.5 647.3,72.5 647.1,71.1 C646.4,64.8 641.1,59.9 634.8,59.6 C651.3,56 669.3,52.8 688.3,50 C735.5,43.2 785.7,39.6 833.7,39.6 Z M1170.9,74.5 L1252.7,149.1 C1246,149.1 1238.5,149 1230.5,149 C1196.2,149 1164.2,149.4 1135.5,150.3 C1131.7,150.4 1127.8,150.5 1124,150.7 C1120.2,150.8 1116.3,151 1112.1,151.2 C1091.3,152.1 1072.6,153.2 1056.7,154.6 C1052.6,155 1048.6,155.3 1044.8,155.7 C1040.4,156.2 1036.1,156.6 1032.1,157.1 C990.8,162.3 980.7,169.3 976,176.1 C973.1,180.3 972.1,185.4 973.2,190.3 C973.8,192.7 974.9,195 976.7,197.3 C972,200.9 965.7,204.2 958.1,207.1 C944.7,212.3 927.5,216 908.3,217.8 C889,213.7 871.3,207.5 858.3,200.4 C845.9,193.6 838.1,186.2 836,179.4 C835.5,164.7 844.3,151.3 862.9,138.6 C881.1,126.2 908.1,115.1 943.1,105.6 C950.9,103.5 959.4,101.4 968.3,99.4 C976.3,97.6 984.7,95.9 993.3,94.2 C1014.5,90.2 1037.8,86.6 1062.4,83.5 C1068.8,82.7 1075.4,82 1081.9,81.3 C1087.4,80.7 1093.1,80.1 1099.4,79.5 C1133.2,76.3 1160.1,74.9 1170.9,74.5 Z M1351.9,190.6 C1354,192.9 1355.9,195.2 1357.8,197.6 C1352.7,196.2 1347.5,194.8 1342.1,193.5 L1343.5,193.5 C1343.6,193.5 1343.7,193.5 1343.7,193.5 C1346.8,193.5 1349.6,192.5 1351.9,190.6 Z M1073.2,198.6 C1069.5,200.9 1065.6,203.2 1061.5,205.3 C1053.8,209.4 1045.2,213.5 1035.9,217.3 C1028.4,220.4 1020.3,223.4 1011.7,226.2 C1014.1,224.5 1016.5,222.8 1018.8,221 C1022.4,218.2 1025.9,215.3 1029.2,212.3 C1032.5,209.3 1035.6,206.1 1038.5,202.9 C1039.1,202.2 1039.8,201.5 1040.4,200.7 L1073.2,198.6 Z M57.4,212.4 C63.1,222.6 71.7,231.7 83,239.4 C93.3,246.4 105.8,252.3 120.8,257.4 C88.8,259.2 61.2,264.5 38.4,273.3 C38.4,273 38.4,272.8 38.4,272.5 C38.5,252.3 44.9,232.1 57.4,212.4 Z M1134.4,220.9 C1142.2,221 1309.5,222.6 1391.1,264.1 C1391.5,264.3 1391.8,264.5 1392.2,264.6 C1392.3,264.6 1403,268.9 1413.2,276.5 C1421.3,282.5 1431,292.1 1431,303.1 C1431,316.8 1414.7,330.3 1401,339.2 C1382.8,351 1357.1,362.8 1324.6,374.1 C1269.2,393.4 1213,404.9 1210.8,405.3 C1146.9,417.4 1088.9,426.2 1037.2,431.6 C1094.8,424.8 1150.3,411.1 1213.8,388.4 C1214.1,388.3 1214.4,388.2 1214.7,388 C1246.2,374.1 1268.7,360.6 1283.3,347 C1298.1,333.2 1304.9,318.9 1303.4,304.5 C1301.4,284.2 1283.3,266.7 1249.6,252.4 C1228.2,243.3 1207.5,238.5 1204.5,237.8 C1200.7,236.8 1174.6,230.4 1123.2,230.4 C1117.6,230.4 1111.9,230.5 1106.1,230.6 C1106,230.6 1105.9,230.6 1105.8,230.6 L1103.6,230.7 C1108.7,226.9 1112.8,223.5 1115.7,221.1 C1124.7,221.3 1132.6,221 1134.4,220.9 Z M142.9,307 C204.4,307 282.5,319.3 375.8,343.7 C320.8,334.2 244.5,323.2 185.7,323.2 C130.5,323.2 100.6,332.9 91.8,353.8 C91.5,354.5 91.3,355.2 91.1,355.9 C88.3,367.5 90.5,378.3 97.4,387 C102.5,393.4 110,398.6 120.1,402.6 C95.2,400.3 74.3,396.4 57.5,391.1 C31.7,382.9 21.2,372.9 17,366 C11.6,357.1 14.3,349.8 14.9,348.6 C15.2,348.1 15.5,347.7 15.9,347.1 C18.2,343.6 24.3,334.2 41.6,325.4 C65.2,313.1 99.3,307 142.9,307 Z M925.3,386.2 L928.4,424.7 C928.9,431.4 934.6,436.6 941.3,436.7 C942.5,436.7 943.7,436.7 944.9,436.7 C964.8,436.7 984,436.1 1002.7,434.8 C981.6,436.5 961.7,437.5 943.1,437.9 C939.6,438 936.3,439.5 933.9,442 C931.5,444.6 930.2,448 930.4,451.5 L931.2,469.9 L899.2,499.7 L887.4,410.6 L925.3,386.2 Z M840.1,394.9 L846,474.4 L819.7,500.3 L803,418.8 L840.1,394.9 Z M288.7,443.7 C381.8,487.9 508.1,515.9 645.4,522.8 C649.9,525.5 654.5,528.3 659.1,531.1 C620.8,529.9 582.9,527.5 546,523.8 C495.2,518.7 445.8,511.3 399.3,501.7 C332.1,487.9 270.8,469.5 218.7,447.7 C240.4,447 263.9,445.7 288.7,443.7 Z M1196.1,452.4 C1175.4,460.6 1153.3,468.4 1129.9,475.6 C1074.9,492.5 1014.5,505.8 949.7,515.3 L967,499.2 C1002.4,491.7 1036,482.5 1067,472 C1106.7,467.2 1150,460.6 1196.1,452.4 Z M858.5,525 L858.6,525.7 C858.3,525.7 858,525.8 857.6,525.8 L858.5,525 Z M713,0 C547.2,0 395.1,23.3 276.3,62 C280.6,61.3 284.9,60.7 289.2,60 C365.6,48.7 432.6,46.6 435.4,46.5 L443.8,46.2 L458.1,59.2 C492.1,51.8 528.2,45.9 565.8,41.5 L569.1,40.3 C625.8,19 734.2,4.7 839.5,4.4 C798.4,1.6 756.2,0 713,0 Z M833.7,26.6 C732.5,26.6 629.6,42.5 573.7,63.4 L579.7,73.8 L634.4,72.5 C634.4,72.5 650.4,209.3 653.7,244.7 C654,247.8 654.3,250.9 654.6,254.2 C567.7,217.8 391.8,217.4 391.8,217.4 C385,217.5 378,217.6 370.8,217.6 C313.4,217.6 247.6,213.8 243.6,196.8 C238.4,174.6 399.7,171.5 488.2,171.5 C521.4,171.5 544.4,171.9 544.4,171.9 L433.4,70.8 C433.4,70.8 73.8,81.5 80.8,190.8 C92,240.9 224.3,248.5 304.1,248.5 C339.2,248.5 364.2,247 364.2,247 C370.1,246.9 375.7,246.8 381,246.8 C434.3,246.8 459.1,252.6 459.1,252.6 C459.1,252.6 640.4,272.7 467.1,356.2 C314.2,309.1 211.6,294 142.9,294 C27.8,294 7.7,336.4 4,341.2 C-0.4,346.9 -26.5,418.2 183.1,418.2 C251.2,418.2 344.3,410.7 471.1,390.9 C527.5,414.3 859.7,616.3 873.1,634.1 L891.3,611.1 L799.5,552.6 C799.5,552.6 774.9,487.5 753.3,278.4 C753.3,278.4 880.5,276 987.3,247.1 C997,244.5 1006.5,241.7 1015.7,238.6 C1024.4,235.7 1032.8,232.6 1040.8,229.3 C1050.2,225.4 1059.2,221.3 1067.6,216.8 C1073,213.9 1078.2,210.9 1083,207.7 C1087.6,204.7 1091.9,201.6 1096,198.3 C1101.9,193.5 1107.3,188.4 1111.8,183 L1033.9,188.1 C1032.3,190.2 1030.6,192.2 1028.8,194.2 C1026.2,197.1 1023.4,200 1020.4,202.7 C1017.4,205.5 1014.3,208.1 1010.9,210.7 C1002.6,217.1 993.3,222.8 983.2,227.6 C980.3,229 977.3,230.3 974.3,231.5 C970.5,233 966.1,234.4 961.4,235.7 C952.6,238.1 942.3,240.3 931.1,242.1 C867.5,252.7 773.7,255.2 751.7,258 L728.8,70.7 C728.8,70.7 745.3,69.8 771.4,69.8 C806.6,69.8 859.4,71.4 913.2,79 C921.7,76.7 930.4,74.6 939.2,72.7 C963.8,67.3 989.1,63 1013.2,59.6 C1020.8,58.6 1028.2,57.6 1035.5,56.7 C982.1,35.2 908.3,26.6 833.7,26.6 Z M198.2,399.7 C140,399.7 96.4,389.8 103.8,358.8 C110.9,342 143.5,336.1 185.8,336.1 C287.2,336.1 444.7,370 444.7,370 C444.7,370 299.3,399.7 198.2,399.7 Z M685.8,486.8 L506.8,384.6 C506.8,384.6 606.9,369.7 663.8,341 C664.5,347 665.2,352.9 665.9,358.9 C671.8,408.6 678.7,457.2 685.8,486.8 Z M1175.7,61.3 C1175.7,61.3 1143.3,62.3 1098.2,66.6 C1092.5,67.1 1086.6,67.7 1080.5,68.4 C1074.1,69.1 1067.6,69.8 1060.9,70.7 C1038.5,73.4 1014.6,77 991,81.5 C982.5,83.1 974,84.9 965.6,86.8 C956.9,88.8 948.3,90.9 939.9,93.1 C873.9,110.9 820.5,138.6 823.3,181.4 C828.6,204.9 867.1,222.6 907.8,231 C949.5,227.2 984.1,215.2 995.8,196 C992.5,194 986.7,190.1 986.1,187.4 C984.2,179.4 1003.9,173.9 1033.9,170.1 C1037.9,169.6 1042,169.1 1046.3,168.7 C1050.1,168.3 1054,168 1058,167.6 C1074.9,166.1 1093.6,165.1 1112.8,164.3 C1116.7,164.1 1120.7,164 1124.7,163.8 C1128.5,163.7 1132.3,163.5 1136.1,163.4 C1169.9,162.4 1203.7,162.1 1230.7,162.1 C1263.9,162.1 1286.9,162.5 1286.9,162.5 L1175.7,61.3 Z M1268.4,111.9 L1343.7,180.5 L1288.8,179.5 C1288.6,179.5 1265.6,179.1 1233,179.1 C1232.2,179.1 1231.3,179.1 1230.5,179.1 C1234,182.6 1237.3,186.2 1240.5,189.8 C1288.7,194.9 1344.7,204.3 1388.3,221.4 C1369.1,181.1 1327.3,143.9 1268.4,111.9 Z M62.7,183.8 C38.6,211.6 25.5,241.4 25.5,272.5 C25.5,279.2 26.1,285.9 27.3,292.6 C55.8,277.6 95.6,269.8 145.4,269.8 C147.2,269.8 149,269.8 150.9,269.8 C151.1,264 151.7,258.3 152.8,252.6 C99.2,240.8 69.9,220.8 63.3,191.8 L62.9,190.2 L62.8,188.6 C62.8,187 62.7,185.4 62.7,183.8 Z M1134.1,207.9 C1134.1,207.9 1125.1,208.3 1115.2,208.3 C1113.8,208.3 1112.3,208.3 1110.8,208.3 C1106.6,212.2 1077.8,237.1 1049.5,246.7 L1106.5,243.8 C1112.4,243.6 1117.9,243.6 1123.2,243.6 C1176.6,243.6 1201.4,250.7 1201.4,250.7 C1201.4,250.7 1396.6,293.5 1209.4,376.3 C1120,408.1 1043.1,423.8 944.8,423.8 C943.6,423.8 942.5,423.8 941.3,423.8 L936.5,363.6 L873.5,404.2 L889.6,526.5 L944.4,475.4 L943.3,451 C1009.6,449.5 1097.2,440 1213.2,418.1 C1213.2,418.1 1443.9,372.1 1443.9,303.2 C1443.9,271 1396.8,252.6 1396.8,252.6 C1310,208.3 1134.1,207.9 1134.1,207.9 Z M183.8,353.3 C143.6,353.7 130.2,360 126.4,362.6 C128.4,364.8 141.4,375.5 200.6,375.5 C202.2,375.5 203.9,375.5 205.5,375.5 C197.5,368.3 190.2,360.8 183.8,353.3 Z M851.5,372.1 L788.5,412.7 L811.9,526.4 L859.5,479.4 L851.5,372.1 Z M1299.3,414.8 C1256.5,427.4 1221.7,434.4 1219.8,434.8 L1219.6,434.8 C1163.2,445.4 1111.3,453.6 1064.1,459.2 C1032.3,470 997.7,479.4 960.8,487.1 L911,533.5 C1074.3,514 1212,471.2 1299.3,414.8 Z M291.1,430.5 C252.3,433.7 217.1,435.3 185.6,435.3 C177.1,435.3 168.9,435.2 160.9,434.9 C285,501.1 483.2,544.2 706.8,545 C688,533.5 668.6,521.7 649.3,510.1 C507.1,503.2 380.9,473.8 291.1,430.5 Z M868.6,502.3 C866.8,502.5 865,502.7 863.1,503 L824.5,538.9 L828.1,541.2 C843.3,540.2 858.3,539 873.2,537.6 L868.6,502.3 Z"></path><path fill="#99CCCC" d="M707.7,6 C650.5,12.4 600,22.5 566.9,34.9 L564.3,35.9 C528.3,40.1 493.1,45.8 459.8,52.9 L447.8,42 C446.7,41 445.3,40.4 443.8,40.4 C443.7,40.4 443.7,40.4 443.6,40.4 L435.2,40.7 C433.2,40.8 400.2,41.8 354.5,46.2 C393.4,36.7 434.7,28.8 477.8,22.5 C551.4,11.8 628.7,6.3 707.7,6 Z M833.7,32.6 C884,32.6 952.6,36.6 1009.8,54 C983.9,57.7 959.7,62 937.9,66.8 C929.3,68.7 920.8,70.7 912.8,72.8 C859,65.3 806.3,63.7 771.4,63.7 C745.4,63.7 728.6,64.6 728.4,64.6 C726.7,64.7 725.2,65.5 724.1,66.7 C723,68 722.5,69.6 722.7,71.3 L745.6,258.6 C745.8,260.2 746.6,261.6 747.9,262.6 C749,263.4 750.3,263.9 751.6,263.9 C751.9,263.9 752.1,263.9 752.4,263.9 C759.2,263 773.3,262.2 791.2,261.1 C829.8,258.8 888.2,255.2 932,247.9 C944,245.9 954.4,243.7 962.9,241.3 C968,239.9 972.6,238.4 976.4,236.9 C979.5,235.7 982.6,234.3 985.7,232.9 C996,228.1 1005.6,222.2 1014.5,215.4 C1018,212.7 1021.3,209.9 1024.4,207.1 C1027.5,204.2 1030.5,201.2 1033.2,198.2 C1034.4,196.9 1035.6,195.4 1036.8,193.9 L1096.3,190 C1094.9,191.2 1093.5,192.4 1092.1,193.6 C1088.3,196.7 1084.1,199.7 1079.6,202.6 C1075,205.6 1069.9,208.6 1064.6,211.4 C1056.7,215.7 1047.8,219.8 1038.4,223.7 C1030.7,226.8 1022.4,229.9 1013.6,232.8 C1004.8,235.7 995.4,238.5 985.5,241.2 C880.7,269.5 754.2,272.2 753,272.3 C751.3,272.3 749.7,273.1 748.6,274.3 C747.5,275.6 747,277.2 747.1,278.9 C758.3,387.1 770.3,456.2 778.4,495 C787.2,537.4 793.4,553.9 793.7,554.6 C794.2,555.8 795,556.8 796.1,557.5 L882.3,612.4 L872.3,625.1 C865.7,619.8 850.9,609.3 815.7,586.6 C782.5,565.3 738.3,537.8 691.2,509.2 C610,460 504.2,397.9 473.2,385.1 C472.5,384.8 471.7,384.6 470.9,384.6 C470.6,384.6 470.3,384.6 470,384.7 C354.1,402.8 257.5,411.9 182.9,411.9 C127,411.9 83.3,406.8 52.9,396.7 C31,389.4 16.2,379.4 9.9,367.7 C3.1,355.1 8.4,344.9 8.6,344.5 C8.9,344 9.3,343.5 9.7,342.9 C12.3,339 19.2,328.5 38,318.8 C62.7,306.2 97.9,299.8 142.6,299.8 C223.2,299.8 331.7,320.7 465.2,361.8 C465.8,362 466.4,362.1 467,362.1 C467.9,362.1 468.8,361.9 469.6,361.5 C498.2,347.7 519.2,334.7 531.9,322.7 C544.1,311.2 549.4,300 547.6,289.5 C545.1,274.9 529.1,263.2 500.1,254.7 C481,249.1 462.7,246.9 459.9,246.6 C456.5,245.9 431.4,240.7 380.8,240.7 C375.3,240.7 369.6,240.8 363.9,240.9 C363.8,240.9 363.7,240.9 363.7,240.9 C363.5,240.9 338.5,242.4 304,242.4 C266.6,242.4 212.6,240.7 167.7,232.4 C133.9,226.2 92.5,213.7 86.6,189.8 C86,177.8 90.3,166.8 99.8,156.4 C126.2,127.4 192,104.4 290.2,89.9 C357.1,80 418.3,77.3 431,76.8 L528.5,165.6 C518.6,165.5 504.5,165.4 488.1,165.4 C448,165.4 389.8,166 340.4,169 C261.3,173.8 245.1,182.1 239.8,188.7 C237.6,191.4 236.8,194.7 237.6,197.9 C240.4,209.8 258,223.4 370.6,223.4 C377.4,223.4 384.5,223.3 391.7,223.2 C393.4,223.2 436.9,223.4 490.1,227.9 C561.2,233.9 617.2,244.8 652.1,259.5 C652.8,259.8 653.6,260 654.4,260 C655.7,260 656.9,259.6 658,258.8 C659.7,257.5 660.6,255.5 660.4,253.4 L660.1,250.2 C659.9,248.1 659.7,246 659.5,244 C656.2,209 640.3,73 640.1,71.7 C639.7,68.7 637.2,66.4 634.1,66.4 C634.1,66.4 634,66.4 634,66.4 L582.9,67.6 L582.2,66.5 C641.7,46.2 741.2,32.6 833.7,32.6 Z M198.2,405.7 C298.8,405.7 444.5,376.2 445.9,375.9 C448.7,375.3 450.7,372.9 450.7,370.1 C450.7,367.3 448.7,364.8 446,364.2 C444.4,363.9 286.6,330.2 185.8,330.2 C134.5,330.2 105.8,338.8 98.3,356.5 C98.2,356.8 98.1,357.1 98,357.5 C95.7,367.1 97.4,375.5 103,382.6 C115.2,398.1 146.4,405.7 198.2,405.7 Z M685.8,492.8 C687.1,492.8 688.3,492.4 689.4,491.6 C691.3,490.2 692.2,487.7 691.6,485.4 C685.5,459.9 678.9,417 671.9,358.2 C671.2,352.5 670.5,346.5 669.8,340.3 C669.6,338.4 668.4,336.6 666.7,335.7 C665.8,335.2 664.8,335 663.9,335 C663,335 662,335.2 661.2,335.6 C605.8,363.6 507,378.5 506,378.6 C503.5,379 501.5,380.9 501,383.4 C500.5,385.9 501.7,388.4 503.9,389.7 L682.8,492 C683.7,492.6 684.7,492.8 685.8,492.8 Z M1173.5,67.4 L1271,156.2 C1261.1,156.1 1247,156 1230.5,156 C1196.2,156 1164.3,156.4 1135.7,157.3 C1131.9,157.4 1128.1,157.5 1124.3,157.7 C1120.5,157.8 1116.7,158 1112.4,158.2 C1091.7,159.1 1073.1,160.2 1057.3,161.6 C1053.2,161.9 1049.3,162.3 1045.5,162.7 C1041.1,163.2 1036.9,163.6 1033,164.1 C994.1,169 985.2,175.2 981.8,180.1 C980,182.7 979.4,185.7 980.1,188.7 C980.6,190.7 981.9,193.4 987.1,197.4 C974.6,211.3 945.8,221.4 908,224.9 C864.4,215.8 833.6,198.4 829.2,180.5 C828.7,171.6 831,163.3 836.1,155.3 C841.1,147.5 848.8,139.9 859.2,132.9 C878.1,120 905.8,108.6 941.5,98.9 C949.4,96.8 958,94.6 967,92.6 C975.1,90.8 983.6,89 992.3,87.4 C1013.7,83.3 1037.1,79.7 1061.9,76.7 C1068.4,75.9 1074.9,75.1 1081.5,74.4 C1087,73.8 1092.8,73.2 1099.1,72.6 C1136.3,68.9 1165.2,67.7 1173.5,67.4 Z M1330.9,160.7 C1333.8,163.1 1336.6,165.5 1339.2,168 C1342.2,170.7 1345,173.4 1347.7,176.1 L1330.9,160.7 Z M1348.2,176.5 C1359.2,187.5 1368.4,198.9 1375.5,210.4 C1342.7,199.3 1301.6,190.9 1252.9,185.2 C1274.6,185.3 1288.6,185.6 1288.8,185.6 L1343.7,186.6 C1343.7,186.6 1343.8,186.6 1343.8,186.6 C1346.3,186.6 1348.5,185.1 1349.4,182.8 C1350.1,180.6 1349.7,178.2 1348.2,176.5 Z M58.8,198.2 C67.6,226 96.2,245.4 145.9,257.2 C145.6,259.4 145.4,261.5 145.2,263.7 C98.8,263.7 60.8,270.4 32.1,283.5 C31.7,279.8 31.5,276.1 31.5,272.4 C31.5,247.2 40.7,222.3 58.8,198.2 Z M1134.2,213.9 C1136.9,213.9 1179.8,214.2 1232.3,219.6 C1303.3,226.9 1359.3,240.1 1394.2,257.8 C1394.4,257.9 1394.6,258 1394.7,258 C1394.8,258 1405.9,262.4 1416.9,270.5 C1434.3,283.3 1438,295.2 1438,303 C1438,316.6 1426.8,330.7 1404.7,345 C1386,357.1 1359.8,369.1 1326.7,380.6 C1270.6,400.2 1213.7,411.7 1212.1,412 C1105.4,432.1 1015,443.2 943.2,444.8 C941.6,444.8 940.1,445.5 939,446.7 C937.9,447.9 937.3,449.5 937.4,451.1 L938.3,472.7 L894,514.1 L879.9,407.2 L931.3,374.1 L935.3,424.3 C935.6,427.4 938.1,429.8 941.3,429.8 C942.5,429.8 943.7,429.8 944.8,429.8 C1038.7,429.8 1115.9,415.9 1211.4,381.9 C1211.5,381.9 1211.7,381.8 1211.8,381.7 C1271.2,355.4 1298.9,330.4 1296.4,305.4 C1294.6,287.9 1278,272.3 1246.8,259.1 C1225.5,250.1 1205,245.4 1202.7,244.9 C1200.1,244.2 1174.8,237.7 1123.1,237.7 C1117.6,237.7 1111.9,237.8 1106.2,237.9 C1106.2,237.9 1106.1,237.9 1106.1,237.9 L1078.9,239.3 C1095.1,229.5 1108.3,218.5 1113,214.4 C1113.7,214.4 1114.4,214.4 1115.1,214.4 C1124.6,214.3 1133,214 1134.2,213.9 Z M181.1,359.3 C184,362.7 187.2,366 190.5,369.4 C164.8,368.8 149.8,366 141.3,363.3 C149,361.5 161.5,359.7 181.1,359.3 Z M846.2,382.6 L853.2,477.1 L815.4,514.4 L795.1,415.5 L846.2,382.6 Z M1256.6,432.6 C1220.8,451.2 1179,467.8 1131.9,482.3 C1070.4,501.2 1002.1,515.6 928.7,525.3 L963.7,492.7 C999.7,485.1 1034,475.8 1065.5,465.1 C1112.6,459.5 1164.9,451.3 1220.8,440.8 L1221,440.8 C1221,440.8 1221,440.8 1221.1,440.8 C1223.3,440.2 1236.9,437.4 1256.6,432.6 Z M290,436.6 C382.8,481 509.6,509.2 647.5,516 C659.9,523.5 672.5,531.1 685.1,538.8 C637.8,538 590.8,535.4 545.2,530.8 C494.1,525.7 444.5,518.2 397.7,508.6 C317.3,492 245,468.9 186.9,441.2 C217.5,441.2 252.2,439.6 290,436.6 Z M863.6,510.6 L866.4,532 C857,532.9 847.5,533.6 838.1,534.3 L863.6,510.6 Z M713,0 C547.2,0 395.1,23.3 276.3,62 C280.6,61.3 284.9,60.7 289.2,60 C365.6,48.7 432.6,46.6 435.4,46.5 L443.8,46.2 L458.1,59.2 C492.1,51.8 528.2,45.9 565.8,41.5 L569.1,40.3 C625.8,19 734.2,4.7 839.5,4.4 C798.4,1.6 756.2,0 713,0 Z M833.7,26.6 C732.5,26.6 629.6,42.5 573.7,63.4 L579.7,73.8 L634.4,72.5 C634.4,72.5 650.4,209.3 653.7,244.7 C654,247.8 654.3,250.9 654.6,254.2 C567.7,217.8 391.8,217.4 391.8,217.4 C385,217.5 378,217.6 370.8,217.6 C313.4,217.6 247.6,213.8 243.6,196.8 C238.4,174.6 399.8,171.5 488.2,171.5 C521.4,171.5 544.4,171.9 544.4,171.9 L433.4,70.8 C433.4,70.8 73.8,81.5 80.8,190.8 C92,240.9 224.3,248.5 304.1,248.5 C339.2,248.5 364.2,247 364.2,247 C370.1,246.9 375.7,246.8 381,246.8 C434.3,246.8 459.1,252.6 459.1,252.6 C459.1,252.6 640.4,272.7 467.1,356.2 C314.2,309.1 211.6,294 142.9,294 C27.8,294 7.7,336.4 4,341.2 C-0.4,346.9 -26.5,418.2 183.1,418.2 C251.2,418.2 344.3,410.7 471.1,390.9 C527.5,414.3 859.7,616.3 873.1,634.1 L891.3,611.1 L799.5,552.6 C799.5,552.6 774.9,487.5 753.3,278.4 C753.3,278.4 880.5,276 987.3,247.1 C997,244.5 1006.5,241.7 1015.7,238.6 C1024.4,235.7 1032.8,232.6 1040.8,229.3 C1050.2,225.4 1059.2,221.3 1067.6,216.8 C1073,213.9 1078.2,210.9 1083,207.7 C1087.6,204.7 1091.9,201.6 1096,198.3 C1101.9,193.5 1107.3,188.4 1111.8,183 L1033.9,188.1 C1032.3,190.2 1030.6,192.2 1028.8,194.2 C1026.2,197.1 1023.4,200 1020.4,202.7 C1017.4,205.5 1014.3,208.1 1010.9,210.7 C1002.6,217.1 993.3,222.8 983.2,227.6 C980.3,229 977.3,230.3 974.3,231.5 C970.5,233 966.1,234.4 961.4,235.7 C952.6,238.1 942.3,240.3 931.1,242.1 C867.5,252.7 773.7,255.2 751.7,258 L728.8,70.7 C728.8,70.7 745.3,69.8 771.4,69.8 C806.6,69.8 859.4,71.4 913.2,79 C921.7,76.7 930.4,74.6 939.2,72.7 C963.8,67.3 989.1,63 1013.2,59.6 C1020.8,58.6 1028.2,57.6 1035.5,56.7 C982.1,35.2 908.3,26.6 833.7,26.6 Z M198.2,399.7 C140,399.7 96.4,389.8 103.8,358.8 C110.9,342 143.5,336.1 185.8,336.1 C287.2,336.1 444.7,370 444.7,370 C444.7,370 299.3,399.7 198.2,399.7 Z M685.8,486.8 L506.8,384.6 C506.8,384.6 606.9,369.7 663.8,341 C664.5,347 665.2,352.9 665.9,358.9 C671.8,408.6 678.7,457.2 685.8,486.8 Z M1175.7,61.3 C1175.7,61.3 1143.3,62.3 1098.2,66.6 C1092.5,67.1 1086.6,67.7 1080.5,68.4 C1074.1,69.1 1067.6,69.8 1060.9,70.7 C1038.5,73.4 1014.6,77 990.9,81.5 C982.4,83.1 973.9,84.9 965.5,86.8 C956.8,88.8 948.2,90.9 939.8,93.1 C873.8,110.9 820.4,138.6 823.2,181.4 C828.5,204.9 867,222.6 907.7,231 C949.4,227.2 984,215.2 995.7,196 C992.4,194 986.6,190.1 986,187.4 C984.1,179.4 1003.8,173.9 1033.8,170.1 C1037.8,169.6 1041.9,169.1 1046.2,168.7 C1050,168.3 1053.9,168 1057.9,167.6 C1074.8,166.1 1093.5,165.1 1112.7,164.3 C1116.6,164.1 1120.6,164 1124.6,163.8 C1128.4,163.7 1132.2,163.5 1136,163.4 C1169.8,162.4 1203.6,162.1 1230.7,162.1 C1263.9,162.1 1286.9,162.5 1286.9,162.5 L1175.7,61.3 Z M1268.4,111.9 L1343.7,180.5 L1288.8,179.5 C1288.6,179.5 1265.6,179.1 1233,179.1 C1232.2,179.1 1231.3,179.1 1230.5,179.1 C1234,182.6 1237.3,186.2 1240.5,189.8 C1288.7,194.9 1344.7,204.3 1388.3,221.4 C1369.1,181.1 1327.3,143.9 1268.4,111.9 Z M62.7,183.8 C38.6,211.6 25.5,241.4 25.5,272.5 C25.5,279.2 26.1,285.9 27.3,292.6 C55.8,277.6 95.6,269.8 145.4,269.8 C147.2,269.8 149,269.8 150.9,269.8 C151.1,264 151.7,258.3 152.8,252.6 C99.2,240.8 69.9,220.8 63.3,191.8 L62.9,190.2 L62.8,188.6 C62.8,187 62.7,185.4 62.7,183.8 Z M1134.1,207.9 C1134.1,207.9 1125.1,208.3 1115.2,208.3 C1113.8,208.3 1112.3,208.3 1110.8,208.3 C1106.6,212.2 1077.8,237.1 1049.5,246.7 L1106.5,243.8 C1112.4,243.6 1117.9,243.6 1123.2,243.6 C1176.6,243.6 1201.4,250.7 1201.4,250.7 C1201.4,250.7 1396.6,293.5 1209.4,376.3 C1120,408.1 1043.1,423.8 944.8,423.8 C943.6,423.8 942.5,423.8 941.3,423.8 L936.5,363.6 L873.5,404.2 L889.6,526.5 L944.4,475.4 L943.3,451 C1009.6,449.5 1097.2,440 1213.2,418.1 C1213.2,418.1 1443.9,372.1 1443.9,303.2 C1443.9,271 1396.8,252.6 1396.8,252.6 C1310,208.3 1134.1,207.9 1134.1,207.9 Z M183.8,353.3 C143.6,353.7 130.2,360 126.4,362.6 C128.4,364.8 141.4,375.5 200.6,375.5 C202.2,375.5 203.9,375.5 205.5,375.5 C197.5,368.2 190.2,360.8 183.8,353.3 Z M851.5,372.1 L788.5,412.7 L811.9,526.4 L859.5,479.4 L851.5,372.1 Z M1299.3,414.8 C1256.5,427.4 1221.7,434.4 1219.8,434.8 L1219.6,434.8 C1163.2,445.4 1111.3,453.6 1064.1,459.2 C1032.3,470 997.7,479.4 960.8,487.1 L911,533.5 C1074.3,514 1212,471.2 1299.3,414.8 Z M291.1,430.5 C252.3,433.7 217.1,435.3 185.6,435.3 C177.1,435.3 168.9,435.2 160.9,434.9 C285,501.1 483.2,544.2 706.8,545 C688,533.5 668.6,521.7 649.3,510.1 C507.1,503.2 380.9,473.8 291.1,430.5 Z M868.6,502.3 C866.8,502.5 865,502.7 863.1,503 L824.5,538.9 L828.1,541.2 C843.3,540.2 858.3,539 873.2,537.6 L868.6,502.3 Z"></path></svg>